<?xml version="1.0" encoding="UTF-8" standalone="no"?>
<svg
   xmlns:dc="http://purl.org/dc/elements/1.1/"
   xmlns:cc="http://creativecommons.org/ns#"
   xmlns:rdf="http://www.w3.org/1999/02/22-rdf-syntax-ns#"
   xmlns:svg="http://www.w3.org/2000/svg"
   xmlns="http://www.w3.org/2000/svg"
   xmlns:xlink="http://www.w3.org/1999/xlink"
   xmlns:sodipodi="http://sodipodi.sourceforge.net/DTD/sodipodi-0.dtd"
   xmlns:inkscape="http://www.inkscape.org/namespaces/inkscape"
   inkscape:export-ydpi="1920"
   inkscape:export-xdpi="1920"
   inkscape:export-filename="/Users/pantaray/Downloads/syncopy_icon.png"
   inkscape:version="1.0 (4035a4f, 2020-05-01)"
   sodipodi:docname="syncopy_icon.svg"
   viewBox="0 0 16.000002 15.999998"
   height="16"
   width="16"
   xml:space="preserve"
   id="svg10"
   version="1.1"><metadata
     id="metadata16"><rdf:RDF><cc:Work
         rdf:about=""><dc:format>image/svg+xml</dc:format><dc:type
           rdf:resource="http://purl.org/dc/dcmitype/StillImage" /><dc:title /></cc:Work></rdf:RDF></metadata><defs
     id="defs14"><linearGradient
       id="linearGradient1468"
       inkscape:collect="always"><stop
         id="stop1464"
         offset="0"
         style="stop-color:#1e4b47;stop-opacity:1;" /><stop
         id="stop1466"
         offset="1"
         style="stop-color:#1e4b47;stop-opacity:0;" /></linearGradient><linearGradient
       gradientUnits="userSpaceOnUse"
       y2="-10.087891"
       x2="51.136231"
       y1="-10.087891"
       x1="3.1835425"
       id="linearGradient1470"
       xlink:href="#linearGradient1468"
       inkscape:collect="always" /><filter
       height="1.000011"
       y="-5.4769784e-06"
       width="1.0000085"
       x="-4.2719663e-06"
       id="filter1488"
       style="color-interpolation-filters:sRGB"
       inkscape:collect="always"><feGaussianBlur
         id="feGaussianBlur1490"
         stdDeviation="8.5354929e-05"
         inkscape:collect="always" /></filter></defs><sodipodi:namedview
     units="px"
     lock-margins="false"
     fit-margin-bottom="1"
     fit-margin-right="1"
     fit-margin-left="1"
     fit-margin-top="1"
     inkscape:current-layer="g18"
     inkscape:window-maximized="0"
     inkscape:window-y="0"
     inkscape:window-x="51"
     inkscape:cy="9.4386033"
     inkscape:cx="6.1112128"
     inkscape:zoom="31.713777"
     showgrid="false"
     id="namedview12"
     inkscape:window-height="943"
     inkscape:window-width="1280"
     inkscape:pageshadow="2"
     inkscape:pageopacity="0"
     guidetolerance="10"
     gridtolerance="10"
     objecttolerance="10"
     borderopacity="1"
     bordercolor="#666666"
     pagecolor="#ffffff"
     inkscape:document-rotation="0" /><g
     transform="matrix(1.3333333,0,0,1.3333333,1.0014327,1)"
     inkscape:label="syncopy_logo"
     inkscape:groupmode="layer"
     id="g18"><g
       transform="matrix(0.11317061,0,0,0.11317061,0.61392183,-0.63852378)"
       id="g20"><path
         id="path22"
         style="fill:#1e4b47;fill-opacity:1;fill-rule:nonzero;stroke:none"
         d="m 26.582,52.555 c -3.445,-3.793 -7.996,-6.778 -6.609,-11.946 1.386,-5.175 6.922,-6.613 11.882,-8.402 L 21.641,29.488 c -4.086,1.078 -8.325,3.817 -9.703,8.965 -1.379,5.149 0.374,9.899 3.406,12.762 l 0.269,0.277 c 3.449,3.793 7.996,6.778 6.61,11.946 -1.387,5.175 -6.922,6.609 -11.883,8.402 l 10.215,2.719 c 4.086,-1.079 8.324,-3.817 9.703,-8.969 1.379,-5.145 -0.371,-9.895 -3.406,-12.758 l -0.27,-0.277" /><path
         id="path24"
         style="fill:#2d615a;fill-opacity:1;fill-rule:nonzero;stroke:none"
         d="m 24.855,28.367 c 0,0 3.5,-1.215 5.321,-2.57 l 8.734,2.34 c 0,0 -1.293,1.652 -3.976,2.918 L 24.855,28.367" /><path
         id="path26"
         style="fill:#3b7768;fill-opacity:1;fill-rule:nonzero;stroke:none"
         d="m 31.867,24.281 c 0,0 1.328,-1.426 1.789,-3.488 l 8.024,2.148 c 0,0 -0.586,2.371 -1.516,3.579 l -8.297,-2.239" /><path
         id="path28"
         style="fill:#498678;fill-opacity:1;fill-rule:nonzero;stroke:none"
         d="m 33.828,18.871 c 0,0 -0.09,-2.32 -1.933,-4.516 l 9.902,2.653 c 0,0 0.473,2.344 0.211,4.07 l -8.18,-2.207" /><path
         id="path30"
         style="fill:#69a39e;fill-opacity:1;fill-rule:nonzero;stroke:none"
         d="m 29.508,11.746 c 0,0 -3.824,-3.66 -4.711,-5.199 L 37.75,10.02 c 0,0 2.262,2.031 3.441,4.859 L 29.508,11.746" /><path
         id="path32"
         style="fill:#9ec5c4;fill-opacity:1;fill-rule:nonzero;stroke:none"
         d="m 23.645,4.254 c 0,0 -0.809,-2.074 -0.844,-4.254 l 8.676,2.324 c 0,0 0.753,2.387 3.644,5.02 L 23.645,4.254" /><path
         id="path34"
         style="fill:#2d615a;fill-opacity:1;fill-rule:nonzero;stroke:none"
         d="m 17.234,75.723 c 0,0 -3.504,1.215 -5.324,2.57 l -8.73,-2.34 c 0,0 1.293,-1.652 3.972,-2.918 l 10.082,2.688" /><path
         id="path36"
         style="fill:#3b7768;fill-opacity:1;fill-rule:nonzero;stroke:none"
         d="m 10.219,79.809 c 0,0 -1.328,1.425 -1.785,3.488 L 0.406,81.148 c 0,0 0.59,-2.371 1.516,-3.578 l 8.297,2.239" /><path
         id="path38"
         style="fill:#498678;fill-opacity:1;fill-rule:nonzero;stroke:none"
         d="m 8.258,85.219 c 0,0 0.094,2.316 1.937,4.515 L 0.289,87.082 c 0,0 -0.473,-2.344 -0.211,-4.07 l 8.18,2.207" /><path
         id="path40"
         style="fill:#68a49c;fill-opacity:1;fill-rule:nonzero;stroke:none"
         d="m 12.578,92.344 c 0,0 3.824,3.66 4.715,5.199 L 4.336,94.07 c 0,0 -2.258,-2.031 -3.438,-4.859 l 11.68,3.133" /><path
         id="path42"
         style="fill:#9ec5c4;fill-opacity:1;fill-rule:nonzero;stroke:none"
         d="m 18.445,99.832 c 0,0 0.809,2.078 0.844,4.258 l -8.676,-2.324 c 0,0 -0.754,-2.387 -3.644,-5.024 l 11.476,3.09" /><text
         id="text46"
         style="font-style:oblique;font-variant:normal;font-weight:bold;font-stretch:normal;font-size:40px;font-family:Helvetica;-inkscape-font-specification:'Helvetica, Bold Oblique';font-variant-ligatures:normal;font-variant-caps:normal;font-variant-numeric:normal;font-variant-east-asian:normal;letter-spacing:-1.65678999999999998px;writing-mode:lr-tb;fill:url(#linearGradient1470);fill-opacity:1;fill-rule:nonzero;stroke:none;filter:url(#filter1488);opacity:0.99399999;"
         transform="translate(28.05183,71.423365)"><tspan
           y="0"
           x="0"
           style="font-style:oblique;font-variant:normal;font-weight:bold;font-stretch:normal;font-size:40px;font-family:Helvetica;-inkscape-font-specification:'Helvetica, Bold Oblique';font-variant-ligatures:normal;font-variant-caps:normal;font-variant-numeric:normal;font-variant-east-asian:normal;opacity:0.996851;fill:#1e4b47;fill-opacity:1;"
           id="tspan50"
           sodipodi:role="line">P<tspan
   id="tspan52"
   style="font-style:oblique;font-variant:normal;font-weight:bold;font-stretch:normal;font-size:40px;font-family:Helvetica;-inkscape-font-specification:'Helvetica, Bold Oblique';font-variant-ligatures:normal;font-variant-caps:normal;font-variant-numeric:normal;font-variant-east-asian:normal;opacity:0.993;fill:#1e4b47;fill-opacity:1;">y</tspan></tspan></text></g></g></svg>
