<?xml version="1.0" encoding="UTF-8" standalone="no"?>
<svg
   xmlns:dc="http://purl.org/dc/elements/1.1/"
   xmlns:cc="http://creativecommons.org/ns#"
   xmlns:rdf="http://www.w3.org/1999/02/22-rdf-syntax-ns#"
   xmlns:svg="http://www.w3.org/2000/svg"
   xmlns="http://www.w3.org/2000/svg"
   xmlns:sodipodi="http://sodipodi.sourceforge.net/DTD/sodipodi-0.dtd"
   xmlns:inkscape="http://www.inkscape.org/namespaces/inkscape"
   version="1.1"
   id="svg10"
   xml:space="preserve"
   width="253.16949"
   height="144.78667"
   viewBox="0 0 253.16949 144.78665"
   sodipodi:docname="syncopy_logo.svg"
   inkscape:version="1.0 (4035a4f, 2020-05-01)"
   inkscape:export-filename="/Users/pantaray/Downloads/syncopy_logo.png"
   inkscape:export-xdpi="300"
   inkscape:export-ydpi="300"><metadata
     id="metadata16"><rdf:RDF><cc:Work
         rdf:about=""><dc:format>image/svg+xml</dc:format><dc:type
           rdf:resource="http://purl.org/dc/dcmitype/StillImage" /><dc:title /></cc:Work></rdf:RDF></metadata><defs
     id="defs14" /><sodipodi:namedview
     inkscape:document-rotation="0"
     pagecolor="#ffffff"
     bordercolor="#666666"
     borderopacity="1"
     objecttolerance="10"
     gridtolerance="10"
     guidetolerance="10"
     inkscape:pageopacity="0"
     inkscape:pageshadow="2"
     inkscape:window-width="1755"
     inkscape:window-height="943"
     id="namedview12"
     showgrid="false"
     inkscape:zoom="2.8043592"
     inkscape:cx="117.06312"
     inkscape:cy="72.392642"
     inkscape:window-x="51"
     inkscape:window-y="0"
     inkscape:window-maximized="0"
     inkscape:current-layer="g18"
     fit-margin-top="3"
     fit-margin-left="3"
     fit-margin-right="3"
     fit-margin-bottom="3"
     lock-margins="true" /><g
     id="g18"
     inkscape:groupmode="layer"
     inkscape:label="syncopy_logo"
     transform="matrix(1.3333333,0,0,1.3333333,3.0014327,3)"><g
       id="g20"><path
         d="m 26.582,52.555 c -3.445,-3.793 -7.996,-6.778 -6.609,-11.946 1.386,-5.175 6.922,-6.613 11.882,-8.402 L 21.641,29.488 c -4.086,1.078 -8.325,3.817 -9.703,8.965 -1.379,5.149 0.374,9.899 3.406,12.762 l 0.269,0.277 c 3.449,3.793 7.996,6.778 6.61,11.946 -1.387,5.175 -6.922,6.609 -11.883,8.402 l 10.215,2.719 c 4.086,-1.079 8.324,-3.817 9.703,-8.969 1.379,-5.145 -0.371,-9.895 -3.406,-12.758 l -0.27,-0.277"
         style="fill:#1e4b47;fill-opacity:1;fill-rule:nonzero;stroke:none"
         id="path22" /><path
         d="m 24.855,28.367 c 0,0 3.5,-1.215 5.321,-2.57 l 8.734,2.34 c 0,0 -1.293,1.652 -3.976,2.918 L 24.855,28.367"
         style="fill:#2d615a;fill-opacity:1;fill-rule:nonzero;stroke:none"
         id="path24" /><path
         d="m 31.867,24.281 c 0,0 1.328,-1.426 1.789,-3.488 l 8.024,2.148 c 0,0 -0.586,2.371 -1.516,3.579 l -8.297,-2.239"
         style="fill:#3b7768;fill-opacity:1;fill-rule:nonzero;stroke:none"
         id="path26" /><path
         d="m 33.828,18.871 c 0,0 -0.09,-2.32 -1.933,-4.516 l 9.902,2.653 c 0,0 0.473,2.344 0.211,4.07 l -8.18,-2.207"
         style="fill:#498678;fill-opacity:1;fill-rule:nonzero;stroke:none"
         id="path28" /><path
         d="m 29.508,11.746 c 0,0 -3.824,-3.66 -4.711,-5.199 L 37.75,10.02 c 0,0 2.262,2.031 3.441,4.859 L 29.508,11.746"
         style="fill:#69a39e;fill-opacity:1;fill-rule:nonzero;stroke:none"
         id="path30" /><path
         d="m 23.645,4.254 c 0,0 -0.809,-2.074 -0.844,-4.254 l 8.676,2.324 c 0,0 0.753,2.387 3.644,5.02 L 23.645,4.254"
         style="fill:#9ec5c4;fill-opacity:1;fill-rule:nonzero;stroke:none"
         id="path32" /><path
         d="m 17.234,75.723 c 0,0 -3.504,1.215 -5.324,2.57 l -8.73,-2.34 c 0,0 1.293,-1.652 3.972,-2.918 l 10.082,2.688"
         style="fill:#2d615a;fill-opacity:1;fill-rule:nonzero;stroke:none"
         id="path34" /><path
         d="m 10.219,79.809 c 0,0 -1.328,1.425 -1.785,3.488 L 0.406,81.148 c 0,0 0.59,-2.371 1.516,-3.578 l 8.297,2.239"
         style="fill:#3b7768;fill-opacity:1;fill-rule:nonzero;stroke:none"
         id="path36" /><path
         d="m 8.258,85.219 c 0,0 0.094,2.316 1.937,4.515 L 0.289,87.082 c 0,0 -0.473,-2.344 -0.211,-4.07 l 8.18,2.207"
         style="fill:#498678;fill-opacity:1;fill-rule:nonzero;stroke:none"
         id="path38" /><path
         d="m 12.578,92.344 c 0,0 3.824,3.66 4.715,5.199 L 4.336,94.07 c 0,0 -2.258,-2.031 -3.438,-4.859 l 11.68,3.133"
         style="fill:#68a49c;fill-opacity:1;fill-rule:nonzero;stroke:none"
         id="path40" /><path
         d="m 18.445,99.832 c 0,0 0.809,2.078 0.844,4.258 l -8.676,-2.324 c 0,0 -0.754,-2.387 -3.644,-5.024 l 11.476,3.09"
         style="fill:#9ec5c4;fill-opacity:1;fill-rule:nonzero;stroke:none"
         id="path42" /><text
         transform="translate(28.05183,71.423365)"
         style="font-style:oblique;font-variant:normal;font-weight:bold;font-stretch:normal;font-size:40px;font-family:Helvetica;-inkscape-font-specification:'Helvetica, Bold Oblique';font-variant-ligatures:normal;font-variant-caps:normal;font-variant-numeric:normal;font-variant-east-asian:normal;letter-spacing:-1.875px;writing-mode:lr-tb;fill:#1e4b47;fill-opacity:1;fill-rule:nonzero;stroke:none;stroke-width:0.283465;stroke-miterlimit:4;stroke-dasharray:none"
         id="text46"><tspan
           sodipodi:role="line"
           id="tspan50"
           style="font-style:oblique;font-variant:normal;font-weight:bold;font-stretch:normal;font-size:40px;font-family:Helvetica;-inkscape-font-specification:'Helvetica, Bold Oblique';font-variant-ligatures:normal;font-variant-caps:normal;font-variant-numeric:normal;font-variant-east-asian:normal;stroke-width:0.283465;stroke-miterlimit:4;stroke-dasharray:none"
           x="0"
           y="0">yNCo<tspan
   rotate="0 0"
   style="font-style:oblique;font-variant:normal;font-weight:bold;font-stretch:normal;font-size:40px;font-family:Helvetica;-inkscape-font-specification:'Helvetica, Bold Oblique';font-variant-ligatures:normal;font-variant-caps:normal;font-variant-numeric:normal;font-variant-east-asian:normal;letter-spacing:-0.75px;fill:#4584b6;fill-opacity:1;stroke:#1e4b47;stroke-width:0.283465;stroke-miterlimit:4;stroke-dasharray:none;stroke-opacity:1"
   id="tspan877">P</tspan><tspan
   rotate="0 0"
   style="font-style:oblique;font-variant:normal;font-weight:bold;font-stretch:normal;font-size:40px;font-family:Helvetica;-inkscape-font-specification:'Helvetica, Bold Oblique';font-variant-ligatures:normal;font-variant-caps:normal;font-variant-numeric:normal;font-variant-east-asian:normal;letter-spacing:-0.75px;opacity:0.993;fill:#ffde57;fill-opacity:1;stroke:#1e4b47;stroke-width:0.283465;stroke-miterlimit:4;stroke-dasharray:none;stroke-opacity:1"
   id="tspan52">y</tspan></tspan></text></g></g></svg>
